<svg width="132" height="45" viewBox="0 0 132 45" fill="none" xmlns="http://www.w3.org/2000/svg">
<path d="M3 1L9.8553 32.8352H44.0543" stroke="black" stroke-width="6" stroke-miterlimit="10"/>
<path d="M12.6026 25.9624C13.2076 25.8568 19.0144 25.9107 19.0144 25.9107H42.2888L46.653 10.8241C46.653 10.8241 19.0208 10.6689 11.1428 10.8694C9.82517 10.9039 9.97588 10.863 9.70029 10.919" stroke="#FF9D27" stroke-width="5" stroke-miterlimit="10"/>
<path d="M10.8134 43C12.1511 43 13.2356 41.9142 13.2356 40.5747C13.2356 39.2352 12.1511 38.1494 10.8134 38.1494C9.47568 38.1494 8.39124 39.2352 8.39124 40.5747C8.39124 41.9142 9.47568 43 10.8134 43Z" stroke="black" stroke-width="3" stroke-miterlimit="10"/>
<path d="M40.8204 43C42.1582 43 43.2426 41.9142 43.2426 40.5747C43.2426 39.2352 42.1582 38.1494 40.8204 38.1494C39.4827 38.1494 38.3983 39.2352 38.3983 40.5747C38.3983 41.9142 39.4827 43 40.8204 43Z" stroke="black" stroke-width="3" stroke-miterlimit="10"/>
<path d="M67.9706 16.4833V19H57.9641V8.94831H61.0233V16.4833H67.9706ZM72.2858 19H68.88L74.486 8.94831H78.6152L84.1007 19H80.725L79.7756 17.1765H73.2804L72.2858 19ZM74.3504 15.0969H78.6604L76.5054 11.1184L74.3504 15.0969ZM98.8263 13.3337L98.8414 15.4435C98.8414 16.6792 98.6254 17.5985 98.1934 18.2013C97.7714 18.794 96.9426 19.0904 95.7068 19.0904L94.1094 19.1055L92.2859 19.0904L90.7036 19.0754C89.5482 19.0754 88.629 19 87.9458 18.8493C87.2727 18.6886 86.7352 18.3419 86.3333 17.8095C85.9415 17.277 85.7456 16.4632 85.7456 15.3681L85.7154 14.1022C85.7154 12.1431 85.9565 10.7868 86.4388 10.0333C86.921 9.27985 88.0563 8.9031 89.8446 8.9031L92.1352 8.85789L92.9792 8.84282L95.0287 8.88803C96.3548 8.88803 97.3143 9.1191 97.9071 9.58125C98.5099 10.0333 98.8113 10.9124 98.8113 12.2185V12.3993H95.8123C95.8123 12.1582 95.7772 11.9523 95.7068 11.7815C95.6365 11.6107 95.5059 11.4901 95.315 11.4198C95.1241 11.3495 94.9383 11.3093 94.7574 11.2992C94.5866 11.2791 94.3355 11.2691 94.0039 11.2691L90.4625 11.254C89.7391 11.254 89.282 11.4298 89.0911 11.7815C88.9002 12.1331 88.8048 12.7259 88.8048 13.5597V14.4941C88.8048 15.1873 88.9002 15.7047 89.0911 16.0463C89.282 16.3778 89.5532 16.5687 89.9049 16.6189C90.2565 16.6591 90.5278 16.6842 90.7187 16.6943C90.9095 16.7043 91.1507 16.7094 91.442 16.7094L94.1697 16.7244C94.6821 16.7244 95.0839 16.639 95.3753 16.4682C95.6767 16.2974 95.8274 15.976 95.8274 15.5038L95.8123 15.2174H91.9393V13.3337H98.8263ZM107.712 8.84282L110.153 8.85789C111.941 8.85789 113.162 9.15427 113.815 9.74702C114.478 10.3398 114.81 11.5253 114.81 13.3035V13.7858C114.81 15.8755 114.548 17.277 114.026 17.9903C113.504 18.6936 112.182 19.0452 110.063 19.0452L107.757 19.0904L106.792 19.1055L104.713 19.0301C103.547 19.0301 102.648 18.7689 102.015 18.2465C101.382 17.714 101.066 16.8601 101.066 15.6846L101.036 13.831C101.036 11.7915 101.297 10.4603 101.819 9.83744C102.342 9.2045 103.582 8.88803 105.542 8.88803L107.712 8.84282ZM106.054 16.6039L107.697 16.634L109.264 16.6189C110.128 16.6189 110.746 16.5285 111.117 16.3477C111.499 16.1568 111.69 15.6946 111.69 14.9612L111.72 13.6049C111.72 13.1428 111.69 12.751 111.63 12.4295C111.58 12.0979 111.469 11.8568 111.298 11.7061C111.127 11.5454 110.871 11.4399 110.53 11.3897C110.198 11.3394 109.842 11.3143 109.46 11.3143L106.416 11.3294C105.722 11.3294 105.195 11.3997 104.833 11.5403C104.472 11.681 104.261 11.9824 104.2 12.4445C104.15 12.8966 104.125 13.2734 104.125 13.5748V13.8461V14.2529C104.125 15.1772 104.23 15.8001 104.441 16.1216C104.662 16.4431 105.2 16.6039 106.054 16.6039ZM120.107 15.9559C120.107 16.3678 120.243 16.629 120.514 16.7395C120.796 16.84 121.182 16.8902 121.675 16.8902L123.121 16.9053L125.171 16.845C125.734 16.845 126.1 16.7747 126.271 16.634C126.442 16.4934 126.527 16.2723 126.527 15.9709C126.527 15.6997 126.427 15.4837 126.226 15.3229C126.035 15.1622 125.663 15.0818 125.111 15.0818H124.613L119.58 14.9763C118.636 14.9763 117.967 14.7402 117.576 14.268C117.194 13.7858 117.003 13.0524 117.003 12.0678C117.003 11.2339 117.124 10.5859 117.365 10.1238C117.616 9.66162 118.063 9.35018 118.706 9.18943C119.359 9.01864 120.208 8.91817 121.253 8.88803C122.308 8.85789 123.016 8.84282 123.378 8.84282L125.518 8.87296C126.371 8.87296 127.06 8.94329 127.582 9.08394C128.105 9.21455 128.471 9.46069 128.682 9.82237C128.903 10.184 129.044 10.5106 129.104 10.8019C129.164 11.0933 129.195 11.4951 129.195 12.0075H126.196C126.196 11.6559 126.09 11.4097 125.879 11.2691C125.678 11.1284 125.392 11.0581 125.02 11.0581L123.543 11.043L121.208 11.1184C120.896 11.1184 120.63 11.1787 120.409 11.2992C120.198 11.4097 120.092 11.6006 120.092 11.8719C120.092 12.2436 120.218 12.4898 120.469 12.6103C120.73 12.7208 121.082 12.7761 121.524 12.7761H121.84L123.89 12.8062L125.909 12.8213C127.205 12.8213 128.145 13.0273 128.727 13.4392C129.32 13.841 129.617 14.6548 129.617 15.8805C129.617 17.066 129.35 17.8798 128.818 18.3218C128.295 18.7639 127.426 18.9849 126.211 18.9849L122.293 19.0904L120.243 19.0452C119.158 19.0452 118.359 18.8694 117.847 18.5178C117.335 18.1661 117.078 17.4578 117.078 16.3929V15.7901H120.092L120.107 15.9559Z" fill="black"/>
<path d="M62.4858 31.1794C63.0445 31.1794 63.5598 31.0466 64.0316 30.781C64.4987 30.5199 64.8628 30.1604 65.1239 29.7023L66.9857 30.5886C66.5598 31.3718 65.9506 31.9878 65.1583 32.4367C64.3567 32.8855 63.4659 33.1099 62.4858 33.1099C61.7713 33.1099 61.0957 32.9863 60.4591 32.7389C59.827 32.4916 59.2774 32.1458 58.8103 31.7015C58.3431 31.2527 57.9767 30.7145 57.711 30.0871C57.4454 29.455 57.3126 28.784 57.3126 28.0741C57.3126 27.3642 57.4454 26.6955 57.711 26.0681C57.9767 25.436 58.3431 24.8956 58.8103 24.4467C59.2774 24.0024 59.827 23.6566 60.4591 23.4093C61.0957 23.162 61.7713 23.0383 62.4858 23.0383C63.4659 23.0383 64.3567 23.2628 65.1583 23.7116C65.9506 24.165 66.5598 24.7833 66.9857 25.5665L65.1239 26.4528C64.8674 25.9994 64.5033 25.6375 64.0316 25.3673C63.5552 25.1062 63.04 24.9757 62.4858 24.9757C61.6201 24.9757 60.8873 25.2711 60.2873 25.8619C59.6828 26.4528 59.3805 27.1902 59.3805 28.0741C59.3805 28.9627 59.6828 29.7023 60.2873 30.2932C60.8873 30.884 61.6201 31.1794 62.4858 31.1794ZM83.4949 25.1475C84.1407 25.1475 84.704 25.2574 85.1849 25.4772C85.6704 25.6971 86.0254 26.0039 86.2498 26.3978L86.3391 25.2642H88.2284V33H86.3391L86.2498 31.8596C85.8284 32.6931 84.9101 33.1099 83.4949 33.1099C82.9956 33.1099 82.5216 33.0115 82.0728 32.8145C81.6285 32.6176 81.2392 32.345 80.9048 31.997C80.5751 31.6489 80.3163 31.2252 80.1285 30.726C79.9407 30.2268 79.8468 29.6955 79.8468 29.1321C79.8468 28.5688 79.9407 28.0375 80.1285 27.5383C80.3163 27.039 80.5751 26.6131 80.9048 26.2604C81.2392 25.9123 81.6285 25.6398 82.0728 25.4429C82.5216 25.2459 82.9956 25.1475 83.4949 25.1475ZM84.0307 31.4336C84.649 31.4336 85.1758 31.2161 85.6109 30.781C86.0368 30.3458 86.2498 29.7939 86.2498 29.1253C86.2498 28.4566 86.0368 27.907 85.6109 27.4764C85.1803 27.0459 84.6536 26.8306 84.0307 26.8306C83.4078 26.8306 82.888 27.0459 82.4712 27.4764C82.0453 27.907 81.8323 28.4589 81.8323 29.1321C81.8323 29.7962 82.0453 30.3458 82.4712 30.781C82.8972 31.2161 83.417 31.4336 84.0307 31.4336ZM101.893 33V25.2642H103.789L103.872 26.2329C104.188 25.8207 104.552 25.5368 104.964 25.381C105.372 25.2253 105.919 25.1475 106.606 25.1475V26.8306C105.731 26.8306 105.058 27.0367 104.586 27.4489C104.11 27.8703 103.872 28.4314 103.872 29.1321V33H101.893ZM120.786 25.2642V23.5192H122.765V25.2642H124.675V26.81H122.765V30.3207C122.765 30.9527 123.003 31.3031 123.479 31.3718C123.841 31.4496 124.24 31.4451 124.675 31.358V32.9863C124.162 33.0687 123.681 33.1099 123.232 33.1099C122.348 33.1099 121.721 32.8878 121.35 32.4435C120.974 31.9993 120.786 31.3145 120.786 30.3894V26.81H119.735V25.2642H120.786Z" fill="#FF9D27"/>
</svg>
