<svg width="96" height="96" viewBox="0 0 96 96" fill="none" xmlns="http://www.w3.org/2000/svg">
<path d="M92.2316 16.2316C95.9426 12.5207 95.9426 6.49414 92.2316 2.7832C88.5207 -0.927734 82.4941 -0.927734 78.7832 2.7832L47.5223 34.0738L16.2316 2.81289C12.5207 -0.898047 6.49414 -0.898047 2.7832 2.81289C-0.927734 6.52383 -0.927734 12.5504 2.7832 16.2613L34.0738 47.5223L2.81289 78.8129C-0.898046 82.5238 -0.898046 88.5504 2.81289 92.2613C6.52383 95.9723 12.5504 95.9723 16.2613 92.2613L47.5223 60.9707L78.8129 92.2316C82.5238 95.9426 88.5504 95.9426 92.2613 92.2316C95.9723 88.5207 95.9723 82.4941 92.2613 78.7832L60.9707 47.5223L92.2316 16.2316Z" fill="black"/>
</svg>
